PathFileType	4	(X/Y/Z)	Patient4_TMGait_0pt4_03_left_18.trc.trc
DataRate	CameraRate	NumFrames	NumMarkers	Units	OrigDataRate	OrigDataStartFrame	OrigNumFrames
74.468085106383	74.468085106383	4	33	mm	74.468085106383	89	       141
Frame#	Time	Sacral			L.Shoulder			Chest			R.Shoulder			Neck			R.ASIS			L.ASIS			R.Thigh.Superior			R.Thigh.Lateral			R.Thigh.Inferior			R.Patella			L.Thigh.Superior			L.Thigh.Lateral			L.Thigh.Inferior			L.Patella			L.Shank.Superior			L.Shank.Lateral			L.Shank.Inferior			R.Shank.Superior			R.Shank.Lateral			R.Shank.Inferior			R.Heel			R.Midfoot.Superior			R.Midfoot.Lateral			R.Toe			L.Heel			L.Midfoot.Lateral			L.Midfoot.Superior			L.Toe			L.Elbow			L.Wrist			R.Elbow			R.Wrist			
		X1	Y1	Z1	X2	Y2	Z2	X3	Y3	Z3	X4	Y4	Z4	X5	Y5	Z5	X6	Y6	Z6	X7	Y7	Z7	X8	Y8	Z8	X9	Y9	Z9	X10	Y10	Z10	X11	Y11	Z11	X12	Y12	Z12	X13	Y13	Z13	X14	Y14	Z14	X15	Y15	Z15	X16	Y16	Z16	X17	Y17	Z17	X18	Y18	Z18	X19	Y19	Z19	X20	Y20	Z20	X21	Y21	Z21	X22	Y22	Z22	X23	Y23	Z23	X24	Y24	Z24	X25	Y25	Z25	X26	Y26	Z26	X27	Y27	Z27	X28	Y28	Z28	X29	Y29	Z29	X30	Y30	Z30	X31	Y31	Z31	X32	Y32	Z32	X33	Y33	Z33	

89	24.641714285714	866.734727089357	991.855456379721	468.489491668673	1037.931417499224	1432.731753229658	300.531271878295	1132.284823446664	1367.256595901125	467.766252681716	1032.488758455756	1431.872791292990	636.810666444781	1007.252457838752	1490.457489983666	457.201763198471	1095.220142663321	940.208941979490	596.927187374709	1089.417017619761	962.511439138980	322.883412224120	1157.944923502550	746.562249833876	563.990408677986	1090.133657697210	630.704103941748	626.906814436332	1172.915393074634	584.914476856160	547.092937891480	1184.195493705757	493.745096364694	556.453828668246	1125.767910414717	737.498025518156	344.182423548432	1032.776269603963	625.242817908117	276.218467778504	1115.048379970611	539.624205542199	334.919935019158	1107.235501762017	457.930439974557	331.997105048376	1047.972237906705	397.813430605815	325.706594429149	916.438961291184	331.258714724688	279.398564566700	924.601408861403	202.508925118938	335.949701909203	1151.465868590494	404.006730176758	567.065626585659	1079.089292470371	304.291810759048	634.364770189605	1116.904484551427	205.957521257626	574.542680320313	981.436694908316	42.773222156408	553.786110902485	1150.907777132637	97.601751077999	588.737820091966	1064.751575189804	37.520587112702	628.803504832426	1272.334897354195	47.362493985004	617.306887220709	753.489032422283	92.261528477156	378.557921561785	819.455872919453	65.790160848149	297.088857993218	916.321967436767	105.432504239931	317.432124170834	1023.700810315792	36.336465700021	286.428257081588	1033.642713614474	1083.667042299113	172.916507872512	1175.180896655568	860.758585865759	164.863467070898	990.315159749085	1088.794085966842	761.338844793331	1128.014916438333	867.308830476936	774.757259003423	
90	24.655142857143	866.534367288980	991.852150586914	472.569089709203	1036.984442048662	1432.931517548844	303.962780707120	1132.489813884738	1367.049014759778	470.432927962376	1034.043488267022	1431.531801728094	640.249470315243	1007.429703441915	1490.430602724003	460.912765313706	1095.923274240964	940.460973317286	599.777741276858	1088.427752171830	962.139389356311	325.713497070862	1157.277952634546	745.888832636867	567.387928230551	1088.111208734165	630.244172371471	629.267890245705	1170.919530937407	584.212193144190	549.625667887936	1181.406620744122	492.947019065005	558.185135266590	1129.828270621709	739.180035688775	346.880157536354	1041.536953711333	625.125540156751	277.847420355021	1126.552390160682	541.183358840488	336.130665880706	1119.934575575868	458.246180302049	332.086905815506	1058.541788062998	398.302043721938	325.970778784514	924.655547340724	336.391821780721	280.017777297317	928.774356662263	207.242852124751	335.554461550668	1148.191424083540	403.284489550232	568.428562175295	1075.381420147465	303.719232286855	635.214190745489	1112.423469744854	205.449880560068	574.977641510408	975.969865625126	42.763540511410	553.841126772138	1145.504545200847	97.380595695395	588.879248683146	1059.269528067411	37.463456410823	628.923504954117	1266.940039569055	46.929073224958	617.524978261962	753.733273840746	105.314115314706	378.405126515439	817.803633931265	74.664497433536	297.024526765996	916.633741714579	108.740891807623	316.706443262252	1018.695069817031	35.485754335119	286.438934395119	1028.914079156177	1084.248153187331	175.756517495900	1164.923614223479	858.070659046178	164.529120400481	993.636369937611	1088.848651626033	766.430748429349	1136.484176365524	870.703852982422	778.133382485354	
91	24.668571428571	866.199345704118	991.770008294400	476.719348898678	1035.797837706120	1432.956470017902	307.173314339808	1132.600761085582	1366.737480764066	472.828259063869	1035.666244343865	1431.163915207755	643.468389238906	1007.542382090895	1490.320706395650	464.397651885271	1096.520170534906	940.634290221794	602.545652762766	1087.299284709107	961.652013180106	328.420527227906	1156.465243737133	745.180795406895	570.600043284107	1086.157507951604	629.758838662754	631.621944568320	1168.846099272665	583.498443058701	552.024082705005	1178.573726821408	492.122448795660	559.889411077117	1133.927769966866	741.172929792803	349.434678890237	1050.533130345238	625.355076392499	279.287895095679	1138.318556215014	543.319310089838	337.133443461730	1133.064501575229	459.244985114260	332.133931196868	1069.764961734126	399.277386128342	326.170554517284	933.687451684123	341.987853681361	280.569770910602	933.803683629179	212.610760440871	335.300314265989	1144.877535567128	402.540604040377	569.778892000586	1071.658837038426	303.123142819406	636.100690844784	1107.900510655534	204.926869185305	575.409662517051	970.450807550621	42.749299168760	553.913691689708	1140.059354885703	97.157627081652	589.010189039901	1053.742064970345	37.398975860162	629.041974420040	1261.500148788678	46.478134486672	617.712251391713	755.115292581058	119.598304951723	378.547813706625	816.937387944219	84.782081341946	297.163969062822	917.612942155358	112.719214058228	316.217300627809	1013.770202406359	34.534883150599	286.471406932828	1024.083467454119	1084.652287491098	178.483724692531	1154.463960868669	855.387882823821	164.195178098446	997.110290114142	1088.981365524085	771.497679648088	1145.164539717227	874.402625047753	781.171829825753	
92	24.682000000000	865.753216475404	991.626748895209	480.906713904613	1034.397652234991	1432.818986736088	310.136690944308	1132.613772053119	1366.349631791745	474.943440056210	1037.316707946617	1430.801935469704	646.438697862045	1007.588043233474	1490.150315192156	467.618147963645	1097.025393437577	940.733167388770	605.218947072760	1086.035792839439	961.082268274738	331.013915178542	1155.561741079851	744.473651640649	573.536723656298	1084.370922882350	629.270596204595	633.943740894726	1166.750647545986	582.787391789248	554.230415867676	1175.748651210202	491.283264403489	561.536364168035	1137.946916702643	743.497256703014	351.822440511865	1059.474928916945	626.001931471232	280.556564739855	1150.011167413706	546.074749501160	337.930937199450	1146.294100592609	460.980591573290	332.140586197092	1081.335006546702	400.798544640862	326.326414668334	943.253940717268	347.986835303753	281.100314266949	939.542928539947	218.531716808343	335.250505555025	1141.576196803182	401.789499411669	571.095049645464	1067.971901794962	302.524423569198	637.020113110300	1103.379604668826	204.403323432711	575.836789557935	964.921730216764	42.738749504680	554.010173047327	1134.609037147974	96.953599997461	589.144471041994	1048.209912652937	37.336778169566	629.166438916266	1256.051311404334	46.038982958513	617.878536913203	757.624857284268	134.729610689761	379.064985111072	816.907312667216	95.906522451835	297.572965767382	919.232763420346	117.344904777234	316.026951210586	1009.066637191949	33.533597842633	286.525447289977	1019.131328674175	1084.864979076823	181.125435095096	1143.825602037071	852.719167937750	163.887172807068	1000.756981957931	1089.205254221717	776.476196045212	1154.060456199548	878.440114652745	783.806723108949	
